<svg xmlns="http://www.w3.org/2000/svg" xmlns:xlink="http://www.w3.org/1999/xlink" version="1.1" id="Layer_1" x="0px" y="0px" width="1592.811px" height="415.066px" viewBox="0 0 1592.811 415.066" enable-background="new 0 0 1592.811 415.066" xml:space="preserve">
<rect x="0" y="0" fill="#FFC60B" width="1188.983" height="415.066"/>
<rect x="1188.983" y="0" width="403.828" height="415.066"/>
<g>
	<defs>
		<rect id="SVGID_1_" x="11.238" y="11.239" width="1570.313" height="392.589"/>
	</defs>
	<clipPath id="SVGID_2_">
		<use xlink:href="#SVGID_1_" overflow="visible"/>
	</clipPath>
	<path clip-path="url(#SVGID_2_)" fill="#FFFFFF" d="M1320.34,267.003c6.926-5.78,8.118-12.949,8.118-19.368v-27.001h-37.699v36.64   c0,5.229-4.236,9.486-9.464,9.486c-5.251,0-9.155-4.257-9.155-9.486v-103.81c0-5.229,3.904-9.486,9.155-9.486   c5.228,0,9.464,4.257,9.464,9.486v36.86h37.676v-38.228c-0.021-21.133-13.809-38.538-47.471-38.582   c-34.545,0-47.604,17.493-47.604,38.604v108.4c0,20.956,16.633,36.795,37.898,36.795h11.691L1320.34,267.003z"/>
	<polygon clip-path="url(#SVGID_2_)" fill="#FFFFFF" points="1468.987,271.26 1468.987,152.162 1442.956,152.162 1442.956,117.066    1537.128,117.066 1537.128,152.162 1510.988,152.162 1510.988,297.092 1499.825,297.092  "/>
	<polygon clip-path="url(#SVGID_2_)" fill="#FFC60B" points="1485.851,297.352 1394.149,220.52 1299.118,297.352  "/>
	<path clip-path="url(#SVGID_2_)" fill="#FFC60B" d="M1486.032,297.418h-187.101l0.145-0.118l95.074-76.867l0.041,0.036   L1486.032,297.418z M1299.305,297.286h186.364l-91.521-76.681L1299.305,297.286z"/>
	<path clip-path="url(#SVGID_2_)" fill="#FFFFFF" d="M1420.313,117.262h-52.523l-30.619,137.319l57.003-45.993l59.427,49.787   L1420.313,117.262z M1384.004,199.787l10.17-51.884l10.08,51.884H1384.004z"/>
	<path clip-path="url(#SVGID_2_)" fill="#FFFFFF" d="M1544.508,126.657c0-6.177,4.984-11.206,11.249-11.206   c6.199,0,11.163,5.029,11.163,11.206c0,6.221-4.964,11.25-11.163,11.25C1549.492,137.907,1544.508,132.878,1544.508,126.657    M1564.979,126.657c0-5.095-4.127-9.221-9.222-9.221c-5.162,0-9.309,4.126-9.309,9.221c0,5.117,4.146,9.287,9.309,9.287   C1560.852,135.944,1564.979,131.774,1564.979,126.657 M1553.352,127.385v5.714h-2.05v-13.192h4.257c2.427,0,4.941,0.64,4.941,3.64   c0,1.521-0.949,2.713-2.691,3.088v0.044c1.81,0.353,2.029,1.17,2.229,2.603c0.176,1.236,0.331,2.625,0.794,3.817h-2.647   c-0.133-0.75-0.354-1.589-0.44-2.361c-0.155-1.125-0.155-2.184-0.75-2.801c-0.508-0.552-1.17-0.486-1.897-0.552H1553.352z    M1555.537,125.333c1.939-0.065,2.382-0.859,2.382-1.875c0-0.992-0.442-1.5-2.073-1.5h-2.494v3.375H1555.537z"/>
	<path clip-path="url(#SVGID_2_)" d="M311.107,308.735l-13.942,0.926c0,0-0.132,0.553-0.132,1.479c0,2.581,1.588,7.566,15.53,7.566   c12.971,0,20.359-4.61,20.359-4.61l-3.992,11.714c-0.594,1.919-1.676,2.117-3.33,2.845c-1.082,0.463-8.185,3.706-21.222,3.706   c-23.56,0-36.971-10.346-36.971-23.978c0-15.883,18.023-30.089,42.729-30.089c20.294,0,29.251,8.691,29.251,16.697   C339.387,303.485,332.857,307.456,311.107,308.735 M309.607,290.756c-8.25,0-10.92,10.234-10.92,10.234l5.691-0.463   c8.096-0.75,9.552-1.742,10.61-4.412l1.876-4.896C316.864,291.22,314.614,290.756,309.607,290.756"/>
	<path clip-path="url(#SVGID_2_)" d="M403.096,348.038h-29.779l11.295-30.354c0,0-9.089,14.295-25.303,14.295   c-12.727,0-19.081-7.744-19.081-18.441c0-18.465,15.595-35.054,38.626-35.054c32.736,0,47.362,1.28,47.362,1.28L403.096,348.038    M385.759,291.213c-10.92,0-15.155,17.537-15.155,21.771c0,3.508,1.588,4.324,3.11,4.324c4.302,0,10.898-5.427,16.743-20.008   l2.427-6.088H385.759z"/>
	<path clip-path="url(#SVGID_2_)" d="M489.187,331.255h-28.788l4.611-13.743c0,0.088-10.456,16.875-29.781,14.471   c-11.801-1.478-15.971-9.971-10.985-24.354l9.706-27.86h29.779l-9.617,27.86c-2.889,8.493-1.302,9.508,1.214,9.771   c7.566,0.75,18.022-27.287,19.985-32.448l2.052-5.184h29.405L489.187,331.255"/>
	<polygon clip-path="url(#SVGID_2_)" points="527.816,331.255 498.125,331.255 515.55,279.769 545.087,279.769  "/>
	<path clip-path="url(#SVGID_2_)" d="M585.316,332.446c-13.324,0-16.876-6.176-16.876-6.176l-7.434,21.75h-30.465l24.023-68.251   c0,0,29.097-1.369,45.002-1.369c14.558,0,23.802,3.597,23.802,18.156C623.369,319.607,603.516,332.446,585.316,332.446    M589.729,293.71c-6.596,0-10.171,2.581-16.744,20.008l-1.455,3.771c1.081,0.574,2.36,2.316,6.595,2.316   c5.603,0,9.706-5.713,13.633-15.662l4.103-10.434H589.729z"/>
	<path clip-path="url(#SVGID_2_)" d="M745.572,303.392l-9.685,27.751h-29.78c0,0,5.911-17.162,9.618-27.751   c1.279-3.883,3.705-9.573,3.705-9.573c-4.234,0-6.507,0.728-9.331,3.021c-4.609,3.971-8.625,13.941-14.844,29.251l-2.119,5.052   h-29.781c0,0,5.912-17.162,9.641-27.751c1.258-3.883,3.707-9.573,3.707-9.573c-4.258,0-6.509,0.728-9.332,3.021   c-4.611,3.971-9.552,13.941-15.596,29.251l-2.052,5.052h-29.405l17.67-51.376c0,0,23.097-1.479,45.309-1.479   c8.627,0,14.45,1.788,17.87,4.898c0,0,8.801-4.898,30.529-4.898c10.545,0,16.081,4.986,16.081,13.854   C747.777,295.363,747.093,299.157,745.572,303.392"/>
	<path clip-path="url(#SVGID_2_)" d="M794.295,308.735l-13.876,0.926c0,0-0.154,0.553-0.154,1.479c0,2.581,1.589,7.566,15.465,7.566   c12.836,0,20.227-4.61,20.227-4.61l-3.993,11.714c-0.595,1.919-1.676,2.117-3.308,2.845c-1.037,0.463-8.119,3.706-21.046,3.706   c-23.559,0-36.97-10.346-36.97-23.978c0-15.883,18.045-30.089,42.706-30.089c20.118,0,29.074,8.691,29.074,16.697   C822.42,303.485,815.892,307.456,794.295,308.735 M792.795,290.756c-8.206,0-10.876,10.234-10.876,10.234l5.691-0.463   c8.052-0.75,9.486-1.742,10.523-4.412l1.896-4.896C800.029,291.22,797.758,290.756,792.795,290.756"/>
	<path clip-path="url(#SVGID_2_)" d="M900.072,303.392l-9.685,27.751h-29.78c0,0,5.89-17.162,9.617-27.751   c1.279-3.883,3.706-9.573,3.706-9.573c-4.234,0-6.508,0.728-9.331,3.021c-4.609,3.971-9.506,13.941-15.595,29.251l-2.03,5.052   h-29.405l17.649-51.376c0,0,37.587-1.191,46.058-1.191c15.31,0,20.912,5.537,20.912,14.118   C902.188,295.913,901.438,299.509,900.072,303.392"/>
	<path clip-path="url(#SVGID_2_)" d="M963.192,291.401h-15.067l-7.213,20.646c-1.213,3.53,1.5,6.288,8.117,6.288   c6.067,0,10.677-2.229,10.677-2.229l-6.972,11.537c-0.484,0.927-0.683,1.191-2.514,2.028c-1.28,0.553-7.809,2.759-17.802,2.494   c-11.803-0.177-26.119-5.912-21.883-18.354l7.809-22.412h-13.941l7.875-11.625l31.744-12.267l12.198-0.088l-4.39,12.354h18.992   L963.192,291.401"/>
	<polygon clip-path="url(#SVGID_2_)" points="551.951,256.798 547.031,273.056 517.692,273.056 522.612,256.798  "/>
	<path clip-path="url(#SVGID_2_)" d="M229.385,104.296c-0.507-7.853-0.044-15.905,0-24.53h113.804v24.508h-38.097v124.128h-37.413   V104.296H229.385z"/>
	<path clip-path="url(#SVGID_2_)" d="M347.865,136.134c7.455-9.199,16.434-12,28.324-11.714c-0.354,22.28,0.506,0.442,0,22.523   c-12.045-0.419-28.678,0.772-28.303,17.317l-0.021,64.17h-32.649v-102.2l31.105,0.11L347.865,136.134z"/>
	<path clip-path="url(#SVGID_2_)" d="M436.821,227.693c-1.016-6.065-0.178-0.109-1.192-6.198   c-12.353,7.589-22.699,10.698-33.576,9.795c-1.344-0.287-15.617,0.596-21.706-13.655c-6-16.721-5.801-40.92,15.486-48.751   c11.406-4.037,24.375-5.117,37.568-5.294c0.197-9.485,3.727-19.016-6.331-23.141c-4.147-0.925-8.03,0.2-11.163,2.45   c-4.168,3.617-4.014,8.536-4.014,13.279h-32.052c0.176-11.559,1.676-19.125,11.007-24.927c13.92-8.295,35.714-8.802,54.442-4.897   c11.537,2.978,18.597,8.47,19.942,22.126v79.214H436.821z M414.761,210.421c2.713,3.507,6.286,3.353,9.815,1.853   c13.434-5.338,9.861-19.875,8.979-31.457c-4.722-1.037-7.942-1.169-11.648,0.176C409.708,186.155,408.826,201.001,414.761,210.421"/>
	<path clip-path="url(#SVGID_2_)" d="M524.394,164.823c0-14.118,1.521-17.56-4.236-20.824c-6.441-3.861-15.044,0.552-15.684,8.758   h-0.42c0,28.787-0.44,26.404,0.42,53.074c0.837,4.808,2.779,7.654,8.052,8.956c3.109,0.242,5.757,0.485,8.47-1.765   c5.78-5.184,3.97-14.56,3.751-23.582h30.75c-0.243,18.221,0.11,28.611-17.824,37.369c-15.045,6.75-37.567,5.735-51.774-1.59   c-9.044-5.006-13.323-11.315-13.345-22.477c-0.045-22.391-0.222-20.361-0.045-50.869c0-0.596-2.051-8.317,10.016-16.831   c17.779-10.479,39.486-8.692,49.744-5.692c9.815,3.221,21.639,8.868,22.302,22.214l1.036,13.258h-1.015H524.394z"/>
	<path clip-path="url(#SVGID_2_)" d="M558.99,147.038v-20.029h12.883c0-7.125-0.2-10.214,0.087-14.956   c26.714-7.015,8.471-2.251,29.692-8.317v23.273h2.117h16.169v20.029l-16.058,0.155v56.758c0.485,3.618,2.25,6.464,7.412,7.721   l12.419,0.508l-0.087,16.765c-17.494,3.133-35.517,5.295-45.796-6.529c-5.272-5.471-5.405-10.81-5.823-20.206V147.17   L558.99,147.038z"/>
	<path clip-path="url(#SVGID_2_)" d="M719.456,125.833c12.132,0.287,12.154,0.309,12.154,0c0-19.589-1.345-34.435,8.825-40.964   c8.822-5.052,18.441-3.265,36.706-2.405c0.22,13.523,0.308,3.883,0,17.449c-4.413,0.441-8.008-0.993-13.302,3.045   c-2.868,3.573-1.853,9.838-1.919,23.427c15.838,0.065,0.308,0,15.905,0v21.706h-15.707v80.384h-31.743v-80.847   c-17.074,0.044,8.581,0.286-10.919,0V125.833z"/>
	<rect x="849.624" y="89.725" clip-path="url(#SVGID_2_)" width="32.294" height="19.236"/>
	<rect x="849.604" y="125.861" clip-path="url(#SVGID_2_)" width="32.229" height="102.62"/>
	<path clip-path="url(#SVGID_2_)" d="M815.728,136.125c7.454-9.199,16.786-12,28.653-11.691c-0.33,22.412,0,2.162,0,22.478   c-12.043-0.419-28.985,0.794-28.633,17.36v64.125l-32.669,0.09V126.265h29.958L815.728,136.125z"/>
	<path clip-path="url(#SVGID_2_)" d="M940.837,164.823c0-13.06,1.345-16.81-4.744-20.383c-8.382-3.993-15.022,0.705-15.618,8.317   v-2.383c0,28.787,0,28.787,0.883,55.457c0.838,4.808,2.338,7.654,7.61,8.956c3.11,0.242,5.758,0.485,8.471-1.765   c5.78-5.184,3.971-14.56,3.728-23.582h30.773c-0.242,18.221,0.11,28.611-17.823,37.369c-15.045,6.728-37.567,5.735-51.774-1.59   c-9.022-5.006-13.346-11.315-13.346-22.477c0-17.493,0.221-18.31,0-51.332c0.221-0.221-2.028-7.721,9.949-16.368   c16.501-10.346,32.118-9.75,49.767-5.692c9.813,3.221,21.639,8.868,22.302,22.214l1.036,13.258h-1.015H940.837z"/>
	<path clip-path="url(#SVGID_2_)" d="M685.811,227.693c-1.038-6.065-0.178-0.109-1.192-6.198   c-12.352,7.589-22.698,10.698-33.574,9.795c-1.346-0.287-15.618,0.596-21.707-13.655c-5.999-16.721-5.802-40.92,15.486-48.751   c11.406-4.037,24.354-5.117,37.568-5.294c0.197-9.485,3.727-19.016-6.355-23.118c-4.124-0.948-8.028,0.177-11.139,2.427   c-4.168,3.617-4.014,8.536-4.014,13.279h-32.052c0.153-11.559,1.676-19.125,11.007-24.905c13.92-8.317,35.714-8.824,54.442-4.919   c11.537,2.978,18.839,8.47,20.184,22.126l-0.463,79.214H685.811z M663.752,210.421c2.713,3.507,6.286,3.353,9.838,1.853   c13.39-5.338,9.838-19.875,8.977-31.457c-4.72-1.037-7.963-1.169-11.669,0.176C658.7,186.155,657.816,201.001,663.752,210.421"/>
</g>
<script xmlns=""/></svg>